<mxfile host="65bd71144e">
    <diagram id="EILywZW0Z4QLo58FCy74" name="Page-1">
        <mxGraphModel dx="986" dy="1120" grid="1" gridSize="10" guides="1" tooltips="1" connect="1" arrows="1" fold="1" page="1" pageScale="1" pageWidth="827" pageHeight="1169" math="0" shadow="0">
            <root>
                <mxCell id="0"/>
                <mxCell id="1" parent="0"/>
                <mxCell id="5" style="edgeStyle=none;html=1;entryX=0.5;entryY=0;entryDx=0;entryDy=0;fontSize=18;" parent="1" source="3" target="4" edge="1">
                    <mxGeometry relative="1" as="geometry"/>
                </mxCell>
                <mxCell id="3" value="&lt;font style=&quot;font-size: 18px;&quot;&gt;Début&lt;/font&gt;" style="ellipse;whiteSpace=wrap;html=1;fontStyle=0" parent="1" vertex="1">
                    <mxGeometry x="241" y="20" width="186" height="80" as="geometry"/>
                </mxCell>
                <mxCell id="26" style="edgeStyle=none;html=1;fontSize=18;" parent="1" source="4" target="16" edge="1">
                    <mxGeometry relative="1" as="geometry"/>
                </mxCell>
                <mxCell id="4" value="Champs de recherche" style="shape=parallelogram;perimeter=parallelogramPerimeter;whiteSpace=wrap;html=1;fixedSize=1;fontSize=18;" parent="1" vertex="1">
                    <mxGeometry x="261" y="150" width="146" height="60" as="geometry"/>
                </mxCell>
                <mxCell id="30" style="edgeStyle=none;html=1;exitX=0.5;exitY=1;exitDx=0;exitDy=0;fontSize=18;" parent="1" source="13" target="29" edge="1">
                    <mxGeometry relative="1" as="geometry"/>
                </mxCell>
                <mxCell id="36" style="edgeStyle=none;html=1;entryX=0;entryY=0.5;entryDx=0;entryDy=0;fontSize=18;" parent="1" source="13" target="35" edge="1">
                    <mxGeometry relative="1" as="geometry"/>
                </mxCell>
                <mxCell id="13" value="input = recette.ustensile" style="rhombus;whiteSpace=wrap;html=1;fontSize=18;" parent="1" vertex="1">
                    <mxGeometry x="207" y="510" width="250" height="150" as="geometry"/>
                </mxCell>
                <mxCell id="21" style="edgeStyle=none;html=1;exitX=0;exitY=0.5;exitDx=0;exitDy=0;entryX=1;entryY=0.5;entryDx=0;entryDy=0;fontSize=18;" parent="1" source="15" target="18" edge="1">
                    <mxGeometry relative="1" as="geometry"/>
                </mxCell>
                <mxCell id="24" style="edgeStyle=none;html=1;fontSize=18;" parent="1" source="15" target="13" edge="1">
                    <mxGeometry relative="1" as="geometry"/>
                </mxCell>
                <mxCell id="15" value="i &amp;lt; taille de recettes" style="rhombus;whiteSpace=wrap;html=1;fontSize=18;" parent="1" vertex="1">
                    <mxGeometry x="260" y="340" width="144" height="130" as="geometry"/>
                </mxCell>
                <mxCell id="23" style="edgeStyle=none;html=1;fontSize=18;" parent="1" source="16" target="15" edge="1">
                    <mxGeometry relative="1" as="geometry"/>
                </mxCell>
                <mxCell id="16" value="recettes = recettes du tableau&lt;br&gt;recettes à afficher=[0]&lt;br&gt;i = 0&lt;br&gt;input = Champs de recherche" style="rounded=0;whiteSpace=wrap;html=1;fontSize=18;" parent="1" vertex="1">
                    <mxGeometry x="200" y="230" width="267" height="100" as="geometry"/>
                </mxCell>
                <mxCell id="18" value="Fin" style="ellipse;whiteSpace=wrap;html=1;fontSize=18;" parent="1" vertex="1">
                    <mxGeometry x="20" y="365" width="120" height="80" as="geometry"/>
                </mxCell>
                <mxCell id="20" value="Non" style="text;html=1;strokeColor=none;fillColor=none;align=center;verticalAlign=middle;whiteSpace=wrap;rounded=0;fontSize=18;" parent="1" vertex="1">
                    <mxGeometry x="200" y="365" width="60" height="30" as="geometry"/>
                </mxCell>
                <mxCell id="25" value="Oui" style="text;html=1;strokeColor=none;fillColor=none;align=center;verticalAlign=middle;whiteSpace=wrap;rounded=0;fontSize=18;" parent="1" vertex="1">
                    <mxGeometry x="334" y="470" width="60" height="30" as="geometry"/>
                </mxCell>
                <mxCell id="38" style="edgeStyle=none;html=1;fontSize=18;entryX=0.5;entryY=1;entryDx=0;entryDy=0;" parent="1" source="28" target="35" edge="1">
                    <mxGeometry relative="1" as="geometry">
                        <mxPoint x="670" y="720" as="targetPoint"/>
                        <Array as="points">
                            <mxPoint x="605" y="980"/>
                        </Array>
                    </mxGeometry>
                </mxCell>
                <mxCell id="28" value="input = recette.appareil" style="rhombus;whiteSpace=wrap;html=1;fontSize=18;" parent="1" vertex="1">
                    <mxGeometry x="209" y="900" width="250" height="150" as="geometry"/>
                </mxCell>
                <mxCell id="31" style="edgeStyle=none;html=1;exitX=0.5;exitY=1;exitDx=0;exitDy=0;entryX=0.5;entryY=0;entryDx=0;entryDy=0;fontSize=18;" parent="1" source="29" target="28" edge="1">
                    <mxGeometry relative="1" as="geometry"/>
                </mxCell>
                <mxCell id="37" style="edgeStyle=none;html=1;fontSize=18;entryX=0.5;entryY=1;entryDx=0;entryDy=0;" parent="1" source="29" target="35" edge="1">
                    <mxGeometry relative="1" as="geometry">
                        <mxPoint x="630" y="690" as="targetPoint"/>
                        <Array as="points">
                            <mxPoint x="605" y="765"/>
                        </Array>
                    </mxGeometry>
                </mxCell>
                <mxCell id="29" value="input = recette.ingredient" style="rhombus;whiteSpace=wrap;html=1;fontSize=18;" parent="1" vertex="1">
                    <mxGeometry x="208" y="690" width="250" height="150" as="geometry"/>
                </mxCell>
                <mxCell id="32" value="Non" style="text;html=1;strokeColor=none;fillColor=none;align=center;verticalAlign=middle;whiteSpace=wrap;rounded=0;fontSize=18;" parent="1" vertex="1">
                    <mxGeometry x="344" y="660" width="60" height="30" as="geometry"/>
                </mxCell>
                <mxCell id="33" value="Non" style="text;html=1;strokeColor=none;fillColor=none;align=center;verticalAlign=middle;whiteSpace=wrap;rounded=0;fontSize=18;" parent="1" vertex="1">
                    <mxGeometry x="344" y="840" width="60" height="30" as="geometry"/>
                </mxCell>
                <mxCell id="34" value="Non" style="text;html=1;strokeColor=none;fillColor=none;align=center;verticalAlign=middle;whiteSpace=wrap;rounded=0;fontSize=18;" parent="1" vertex="1">
                    <mxGeometry x="354" y="1050" width="60" height="30" as="geometry"/>
                </mxCell>
                <mxCell id="35" value="Ajouter la recette à recettes à afficher" style="rounded=0;whiteSpace=wrap;html=1;fontSize=18;" parent="1" vertex="1">
                    <mxGeometry x="520" y="522.5" width="170" height="125" as="geometry"/>
                </mxCell>
                <mxCell id="40" value="" style="endArrow=classic;html=1;fontSize=18;exitX=0.5;exitY=1;exitDx=0;exitDy=0;entryX=1;entryY=0.5;entryDx=0;entryDy=0;" parent="1" source="28" target="44" edge="1">
                    <mxGeometry width="50" height="50" relative="1" as="geometry">
                        <mxPoint x="340" y="1140" as="sourcePoint"/>
                        <mxPoint x="810" y="1140" as="targetPoint"/>
                        <Array as="points">
                            <mxPoint x="334" y="1140"/>
                            <mxPoint x="750" y="1140"/>
                            <mxPoint x="750" y="405"/>
                        </Array>
                    </mxGeometry>
                </mxCell>
                <mxCell id="43" value="" style="endArrow=classic;html=1;fontSize=18;exitX=0.5;exitY=0;exitDx=0;exitDy=0;entryX=1;entryY=0.5;entryDx=0;entryDy=0;" parent="1" source="35" target="44" edge="1">
                    <mxGeometry width="50" height="50" relative="1" as="geometry">
                        <mxPoint x="690" y="850" as="sourcePoint"/>
                        <mxPoint x="595" y="410" as="targetPoint"/>
                        <Array as="points">
                            <mxPoint x="605" y="405"/>
                        </Array>
                    </mxGeometry>
                </mxCell>
                <mxCell id="45" style="edgeStyle=none;html=1;entryX=1;entryY=0.5;entryDx=0;entryDy=0;fontSize=18;" parent="1" source="44" target="15" edge="1">
                    <mxGeometry relative="1" as="geometry"/>
                </mxCell>
                <mxCell id="44" value="i = i+1" style="rounded=0;whiteSpace=wrap;html=1;fontSize=18;" parent="1" vertex="1">
                    <mxGeometry x="440" y="375" width="120" height="60" as="geometry"/>
                </mxCell>
                <mxCell id="46" value="Oui" style="text;html=1;strokeColor=none;fillColor=none;align=center;verticalAlign=middle;whiteSpace=wrap;rounded=0;fontSize=18;" parent="1" vertex="1">
                    <mxGeometry x="457" y="550" width="60" height="30" as="geometry"/>
                </mxCell>
                <mxCell id="47" value="Oui" style="text;html=1;strokeColor=none;fillColor=none;align=center;verticalAlign=middle;whiteSpace=wrap;rounded=0;fontSize=18;" parent="1" vertex="1">
                    <mxGeometry x="450" y="730" width="60" height="31" as="geometry"/>
                </mxCell>
                <mxCell id="48" value="Oui" style="text;html=1;strokeColor=none;fillColor=none;align=center;verticalAlign=middle;whiteSpace=wrap;rounded=0;fontSize=18;" parent="1" vertex="1">
                    <mxGeometry x="457" y="940" width="60" height="31" as="geometry"/>
                </mxCell>
            </root>
        </mxGraphModel>
    </diagram>
</mxfile>